<svg width="32" height="32" viewBox="0 0 32 32" fill="none" xmlns="http://www.w3.org/2000/svg">
<g clip-path="url(#clip0_2975_1486)">
<path d="M3.15888 17.1224L5.05328 14.3158L7.57959 16.8421L10.948 15.1579L13.4743 17.6842L16.8427 12.6316L20.2112 15.1579L22.7375 14.3158L24.4217 16.8421L26.948 14.3158L28.6322 17.6842L26.948 23.579L17.6849 27.7895L8.4217 26.1053L3.36907 21.0526L3.1582 17.1224H3.15888Z" fill="#99AAB5"/>
<mask id="mask0_2975_1486" style="mask-type:luminance" maskUnits="userSpaceOnUse" x="0" y="0" width="32" height="32">
<path d="M0 0H32V32H0V0Z" fill="white"/>
</mask>
<g mask="url(#mask0_2975_1486)">
<path d="M26.0677 13.2313C26.0854 12.9888 26.1048 12.7479 26.1048 12.5012C26.1048 7.49656 22.4635 3.35256 17.6871 2.54835C18.6883 2.33025 19.3974 2.11972 18.5258 1.68435C17.5869 1.21446 16.6471 1.79298 16.0003 2.39593H15.9987C15.3511 1.79298 14.413 1.21446 13.4732 1.68435C12.6016 2.11972 13.3107 2.33025 14.3119 2.54835C9.53634 3.35256 5.89424 7.49656 5.89424 12.5012C5.89424 12.7479 5.91361 12.9888 5.93129 13.2313C5.52455 18.79 0.623499 26.9475 15.9995 26.9475C31.3755 26.9475 26.4736 18.79 26.0677 13.2313Z" fill="#FFCC4D"/>
<path d="M18.5253 12.6317C18.5253 14.0271 17.3943 14.3159 15.999 14.3159C14.6036 14.3159 13.4727 14.0271 13.4727 12.6317C13.4727 11.9617 13.7388 11.3191 14.2126 10.8453C14.6864 10.3716 15.329 10.1054 15.999 10.1054C16.669 10.1054 17.3116 10.3716 17.7853 10.8453C18.2591 11.3191 18.5253 11.9617 18.5253 12.6317Z" fill="#F4900C"/>
<path d="M11.7876 10.5263C11.792 10.6949 11.7626 10.8626 11.7012 11.0197C11.6397 11.1767 11.5475 11.3198 11.4298 11.4406C11.3122 11.5614 11.1715 11.6575 11.0162 11.723C10.8608 11.7886 10.6939 11.8225 10.5253 11.8225C10.3567 11.8226 10.1897 11.7889 10.0344 11.7234C9.87896 11.6579 9.73825 11.562 9.62053 11.4412C9.5028 11.3205 9.41044 11.1774 9.34888 11.0204C9.28733 10.8635 9.25783 10.6957 9.26213 10.5272C9.27052 10.1979 9.40719 9.88495 9.64299 9.655C9.8788 9.42506 10.1951 9.2963 10.5245 9.29619C10.8538 9.29608 11.1702 9.42463 11.4062 9.65442C11.6421 9.88421 11.779 10.1971 11.7876 10.5263ZM22.735 10.5263C22.735 10.8613 22.6019 11.1826 22.365 11.4195C22.1281 11.6564 21.8068 11.7895 21.4718 11.7895C21.1368 11.7895 20.8155 11.6564 20.5786 11.4195C20.3417 11.1826 20.2087 10.8613 20.2087 10.5263C20.2087 10.1913 20.3417 9.87002 20.5786 9.63314C20.8155 9.39625 21.1368 9.26316 21.4718 9.26316C21.8068 9.26316 22.1281 9.39625 22.365 9.63314C22.6019 9.87002 22.735 10.1913 22.735 10.5263Z" fill="#662113"/>
<path d="M26.9464 21.8948L24.4201 21.0527L21.0517 26.1053L18.5254 21.8948L16.8412 23.579L13.4728 21.8948L10.9464 25.2632L8.42013 20.2106L5.89381 21.8948L3.11992 15.3559C2.72661 16.5125 2.52576 17.7258 2.52539 18.9474C2.52539 25.6919 8.55823 31.158 15.9991 31.158C23.4399 31.158 29.4728 25.6919 29.4728 18.9474C29.4728 17.8999 29.3119 16.8893 29.0374 15.9184L26.9464 21.8948Z" fill="#E1E8ED"/>
</g>
</g>
<defs>
<clipPath id="clip0_2975_1486">
<rect width="32" height="32" fill="white"/>
</clipPath>
</defs>
</svg>
