<svg width="32" height="32" viewBox="0 0 32 32" fill="none" xmlns="http://www.w3.org/2000/svg">
<g clip-path="url(#clip0_2975_1462)">
<mask id="mask0_2975_1462" style="mask-type:luminance" maskUnits="userSpaceOnUse" x="0" y="0" width="32" height="32">
<path d="M0 0H32V32H0V0Z" fill="white"/>
</mask>
<g mask="url(#mask0_2975_1462)">
<path d="M17.8046 27.9705C17.8046 28.4491 17.6144 28.9081 17.276 29.2466C16.9376 29.585 16.4786 29.7751 15.9999 29.7751C15.5213 29.7751 15.0623 29.585 14.7239 29.2466C14.3854 28.9081 14.1953 28.4491 14.1953 27.9705C14.1953 27.4919 14.3854 27.0329 14.7239 26.6944C15.0623 26.356 15.5213 26.1659 15.9999 26.1659C16.4786 26.1659 16.9376 26.356 17.276 26.6944C17.6144 27.0329 17.8046 27.4919 17.8046 27.9705Z" fill="#E1E8ED"/>
<path d="M24.1213 14.0151C24.1213 9.53009 20.485 5.89473 16.0008 5.89473C11.5166 5.89473 7.88041 9.53009 7.88041 14.0151C7.88041 18.5263 6.97852 27.9705 6.97852 27.9705C6.97852 28.4491 7.16865 28.9081 7.50708 29.2466C7.84551 29.585 8.30453 29.7751 8.78315 29.7751C9.26176 29.7751 9.72078 29.585 10.0592 29.2466C10.3976 28.9081 10.5878 28.4491 10.5878 27.9705C10.598 28.4423 10.7925 28.8913 11.1298 29.2213C11.467 29.5513 11.9201 29.7362 12.392 29.7362C12.8639 29.7362 13.317 29.5513 13.6542 29.2213C13.9914 28.8913 14.186 28.4423 14.1962 27.9705H17.8055C17.8198 28.4396 18.0162 28.8847 18.3531 29.2114C18.6899 29.5381 19.1408 29.7209 19.6101 29.7209C20.0794 29.7209 20.5302 29.5381 20.8671 29.2114C21.204 28.8847 21.4004 28.4396 21.4147 27.9705C21.4249 28.4423 21.6195 28.8913 21.9567 29.2213C22.294 29.5513 22.7471 29.7362 23.2189 29.7362C23.6908 29.7362 24.1439 29.5513 24.4811 29.2213C24.8184 28.8913 25.013 28.4423 25.0231 27.9705C25.0231 27.9705 24.1213 18.5263 24.1213 14.0151Z" fill="#E1E8ED"/>
<path d="M17.6856 3.36848C17.6856 5.22869 16.467 8.42112 16.0013 8.42112C15.5365 8.42112 14.3171 5.22869 14.3171 3.36848C14.3171 1.50827 15.5365 0.842169 16.0013 0.842169C16.467 0.842169 17.6856 1.50827 17.6856 3.36848ZM14.0098 28.6316C14.0098 26.4321 15.4506 21.8948 16.0013 21.8948C16.5521 21.8948 17.9929 26.4321 17.9929 28.6316C17.9929 30.8312 16.5512 31.158 16.0013 31.158C15.4506 31.158 14.0098 30.8312 14.0098 28.6316Z" fill="#DD2E44"/>
<path d="M21.8949 19.7896C21.8949 21.0528 17.8604 23.5791 16.0002 23.5791C14.14 23.5791 10.1055 21.0528 10.1055 19.7896C10.1055 18.5265 14.14 16.0002 16.0002 16.0002C17.8604 16.0002 21.8949 18.5265 21.8949 19.7896Z" fill="#F4900C"/>
<path d="M21.8949 19.7894C21.8949 21.0526 10.1055 21.0526 10.1055 19.7894C10.1055 18.5263 14.14 16 16.0002 16C17.8604 16 21.8949 18.5263 21.8949 19.7894Z" fill="#FFAC33"/>
<path d="M11.79 16.4212C11.79 16.587 11.7573 16.7513 11.6938 16.9046C11.6304 17.0578 11.5373 17.1971 11.42 17.3144C11.3027 17.4317 11.1635 17.5247 11.0102 17.5882C10.857 17.6517 10.6927 17.6843 10.5268 17.6843C10.3609 17.6843 10.1967 17.6517 10.0434 17.5882C9.89019 17.5247 9.75094 17.4317 9.63364 17.3144C9.51635 17.1971 9.4233 17.0578 9.35982 16.9046C9.29634 16.7513 9.26367 16.587 9.26367 16.4212C9.26367 16.0862 9.39675 15.7649 9.63364 15.528C9.87053 15.2911 10.1918 15.158 10.5268 15.158C10.8618 15.158 11.1831 15.2911 11.42 15.528C11.6569 15.7649 11.79 16.0862 11.79 16.4212ZM22.7374 16.4212C22.7373 16.5871 22.7046 16.7514 22.641 16.9047C22.5775 17.058 22.4843 17.1972 22.367 17.3145C22.2496 17.4318 22.1103 17.5249 21.9569 17.5883C21.8036 17.6518 21.6393 17.6844 21.4734 17.6843C21.3074 17.6843 21.1431 17.6515 20.9898 17.588C20.8366 17.5244 20.6973 17.4313 20.58 17.3139C20.4627 17.1966 20.3697 17.0572 20.3062 16.9039C20.2428 16.7506 20.2101 16.5863 20.2102 16.4203C20.2103 16.0852 20.3435 15.7639 20.5806 15.527C20.8176 15.2901 21.1391 15.1571 21.4742 15.1572C21.8093 15.1573 22.1307 15.2905 22.3676 15.5276C22.6044 15.7646 22.7375 16.086 22.7374 16.4212Z" fill="#292F33"/>
</g>
</g>
<defs>
<clipPath id="clip0_2975_1462">
<rect width="32" height="32" fill="white"/>
</clipPath>
</defs>
</svg>
