<svg width="32" height="32" viewBox="0 0 32 32" fill="none" xmlns="http://www.w3.org/2000/svg">
<path fill-rule="evenodd" clip-rule="evenodd" d="M3.87644 20.2219C5.32463 20.2219 6.49994 21.3991 6.49994 22.8468C6.49994 22.9858 6.61225 23.097 6.75094 23.097H25.2527C25.3903 23.097 25.5009 22.9839 25.5009 22.8468C25.5009 21.3986 26.6794 20.2219 28.1273 20.2219C28.2651 20.2219 28.3754 20.109 28.3754 19.9718V12.0282C28.3754 11.8911 28.2649 11.7783 28.1273 11.7783C26.6797 11.7783 25.5009 10.6009 25.5009 9.15308C25.5009 9.01595 25.3903 8.9032 25.2527 8.9032H6.751C6.61231 8.9032 6.5 9.01408 6.5 9.15308C6.5 10.6005 5.32444 11.7783 3.8765 11.7783C3.73781 11.7783 3.6255 11.8892 3.6255 12.0282V19.9718C3.62544 20.1108 3.73756 20.2219 3.87644 20.2219ZM1.25 8.05508C1.25 7.21308 1.93619 6.52808 2.77787 6.52808H29.2229C30.0662 6.52808 30.7508 7.2117 30.7508 8.05508V23.9451C30.7508 24.7883 30.0661 25.4718 29.2229 25.4718H2.77787C1.93631 25.4718 1.25 24.787 1.25 23.9451V8.05508Z" fill="#8CCDAC"/>
<path fill-rule="evenodd" clip-rule="evenodd" d="M18.9374 17.7702C18.9374 18.9377 18.0068 19.922 16.7491 20.2071V20.6009C16.7491 21.015 16.4163 21.3508 16.0011 21.3508C15.5858 21.3508 15.25 21.015 15.25 20.6009V20.2089C14.3576 20.0101 13.6184 19.4608 13.2679 18.6989C13.0941 18.3225 13.2591 17.8778 13.636 17.7046C14.013 17.532 14.4577 17.697 14.6315 18.0733C14.8229 18.4957 15.3884 18.7902 16.001 18.7902C16.7785 18.7902 17.4383 18.3231 17.4383 17.7703C17.4383 17.2171 16.7785 16.75 16.001 16.75C14.3811 16.75 13.0617 15.6193 13.0617 14.2301C13.0617 13.0626 13.9924 12.0783 15.25 11.7932V11.3995C15.25 10.9856 15.5857 10.6496 16.0011 10.6496C16.4163 10.6496 16.7491 10.9856 16.7491 11.3995V11.7932C17.7476 12.0194 18.5575 12.685 18.8343 13.5651C18.9609 13.96 18.7401 14.3812 18.3454 14.5064C17.9507 14.6307 17.5296 14.4113 17.4059 14.0163C17.2792 13.6158 16.7549 13.2102 16.001 13.2102C15.2205 13.2102 14.5637 13.677 14.5637 14.2301C14.5637 14.7833 15.2206 15.2501 16.001 15.2501C17.6209 15.25 18.9374 16.3806 18.9374 17.7702ZM27.3754 19.2999V12.7C25.9765 12.4043 24.8749 11.3013 24.5775 9.9032H7.42163C7.12713 11.3013 6.02269 12.4043 4.62663 12.7V19.3C6.02269 19.5956 7.12713 20.699 7.42163 22.097H24.5775C24.8749 20.6989 25.9765 19.5956 27.3754 19.2999ZM28.1264 11.2783C26.9543 11.2783 26 10.3244 26 9.15308C26 8.7387 25.6642 8.4032 25.2519 8.4032H6.75012C6.33488 8.4032 5.99912 8.73864 5.99912 9.15308C5.99912 10.3244 5.04781 11.2783 3.87562 11.2783C3.46037 11.2783 3.12462 11.6138 3.12462 12.0282V19.9718C3.12462 20.3865 3.46037 20.7219 3.87562 20.7219C5.04781 20.7219 5.99912 21.675 5.99912 22.8469C5.99912 23.2613 6.33488 23.597 6.75012 23.597H25.2519C25.6642 23.597 26.0001 23.2613 26.0001 22.8469C26.0001 21.675 26.9543 20.7219 28.1265 20.7219C28.5388 20.7219 28.8746 20.3865 28.8746 19.9718V12.0282C28.8746 11.6138 28.5388 11.2783 28.1264 11.2783ZM30.2499 23.9451V8.05508C30.2499 7.4887 29.7905 7.02808 29.2221 7.02808H2.777C2.2115 7.02808 1.74913 7.4887 1.74913 8.05508V23.9451C1.74913 24.5111 2.2115 24.9718 2.777 24.9718H29.2221C29.7905 24.9718 30.2499 24.5112 30.2499 23.9451ZM29.2221 5.52808H2.777C1.38394 5.52808 0.25 6.66195 0.25 8.05508V23.9451C0.25 25.3381 1.38387 26.4718 2.777 26.4718H29.2221C30.6181 26.4718 31.7491 25.3381 31.7491 23.9451V8.05508C31.7491 6.66201 30.6181 5.52808 29.2221 5.52808Z" fill="#1B9C5C"/>
</svg>
